{"title":"[MARATHI] Pushpak Wiman (2018) HDPDVDrip x264 with Esub","magnet":"magnet:?xt=urn:btih:941464e6b833b3039586bf0198ca0b350e6b31c5&dn=%5BMARATHI%5D+Pushpak+Wiman+%282018%29+HDPDVDrip+x264+with+Esub&tr=udp%3A%2F%2Ftracker.leechers-paradise.org%3A6969&tr=udp%3A%2F%2Fzer0day.ch%3A1337&tr=udp%3A%2F%2Fopen.demonii.com%3A1337&tr=udp%3A%2F%2Ftracker.coppersurfer.tk%3A6969&tr=udp%3A%2F%2Fexodus.desync.com%3A6969","uploader":"Manoj_vb","categoryP":"video","categoryS":"movies","size":"804227500","seeders":"8","leechers":"18","description":"Video\r\nID                          : 1\r\nFormat                      : AVC\r\nFormat/Info                 : Advanced Video Codec\r\nFormat profile              : Main@L4\r\nFormat settings             : CABAC / 4 Ref Frames\r\nFormat settings, CABAC      : Yes\r\nFormat settings, ReFrames   : 4 frames\r\nCodec ID                    : avc1\r\nCodec ID/Info               : Advanced Video Coding\r\nDuration                    : 2 h 8 min\r\nBit rate                    : 700 kb/s\r\nWidth                       : 704 pixels\r\nHeight                      : 576 pixels\r\nDisplay aspect ratio        : 16:9\r\nFrame rate mode             : Constant\r\nFrame rate                  : 25.000 FPS\r\nStandard                    : PAL\r\nColor space                 : YUV\r\nChroma subsampling          : 4:2:0\r\nBit depth                   : 8 bits\r\nScan type                   : Progressive\r\nBits/(Pixel*Frame)          : 0.069\r\nStream size                 : 643 MiB (84%)\r\n\r\nAudio\r\nID                          : 2\r\nFormat                      : AAC\r\nFormat/Info                 : Advanced Audio Codec\r\nFormat profile              : LC\r\nCodec ID                    : mp4a-40-2\r\nDuration                    : 2 h 8 min\r\nBit rate mode               : Variable\r\nBit rate                    : 128 kb/s\r\nChannel(s)                  : 2 channels\r\nChannel positions           : Front: L R\r\nSampling rate               : 48.0 kHz\r\nFrame rate                  : 46.875 FPS (1024 SPF)\r\nCompression mode            : Lossy\r\nStream size                 : 118 MiB (15%)\r\nTitle                       : Stereo / Stereo\r\nDefault                     : Yes\r\nAlternate group             : 1\r\n <a href=\"\nhttps://extraimage.net/images/2018/09/25/a180f6f2a9027a86a187dd478498cea4.png\" rel=\"nofollow\" target=\"_NEW\">\nhttps://extraimage.net/images/2018/09/25/a180f6f2a9027a86a187dd478498cea4.png</a>\r\n <a href=\"\nhttps://extraimage.net/images/2018/09/25/19dc9486dfb26587b97f41721624f944.png\" rel=\"nofollow\" target=\"_NEW\">\nhttps://extraimage.net/images/2018/09/25/19dc9486dfb26587b97f41721624f944.png</a>\r\n <a href=\"\nhttps://extraimage.net/images/2018/09/25/f691c81e9641adf1d1da9f6e525334f1.png\" rel=\"nofollow\" target=\"_NEW\">\nhttps://extraimage.net/images/2018/09/25/f691c81e9641adf1d1da9f6e525334f1.png</a>","last_updated":"2018-09-25T12:26:13.589Z","parsed":{"xt":"urn:btih:941464e6b833b3039586bf0198ca0b350e6b31c5","dn":"[MARATHI] Pushpak Wiman (2018) HDPDVDrip x264 with Esub","tr":["udp://exodus.desync.com:6969","udp://open.demonii.com:1337","udp://tracker.coppersurfer.tk:6969","udp://tracker.leechers-paradise.org:6969","udp://zer0day.ch:1337"],"infoHash":"941464e6b833b3039586bf0198ca0b350e6b31c5","infoHashBuffer":{"type":"Buffer","data":[148,20,100,230,184,51,179,3,149,134,191,1,152,202,11,53,14,107,49,197]},"name":"[MARATHI] Pushpak Wiman (2018) HDPDVDrip x264 with Esub","announce":["udp://exodus.desync.com:6969","udp://open.demonii.com:1337","udp://tracker.coppersurfer.tk:6969","udp://tracker.leechers-paradise.org:6969","udp://zer0day.ch:1337"],"urlList":[]}}